<svg width="1022" height="263" viewBox="0 0 1022 263" fill="none" xmlns="http://www.w3.org/2000/svg">
<path d="M233.224 151H238.424V127.8H254.824V123H233.224V151ZM258.029 151H262.029L278.429 132V151H283.629V123H279.629L263.229 142V123H258.029V151ZM287.22 151H292.42L294.82 131L302.02 146.2H308.42L315.62 131L318.02 151H323.22L319.82 123H314.22L305.22 142L296.22 123H290.62L287.22 151ZM326.818 151H332.018V135.8H346.818V151H352.018V123H346.818V131H332.018V123H326.818V151ZM354.818 151H360.218L362.418 144.8L377.618 142.2L380.618 151H386.018L376.418 123H364.418L354.818 151ZM364.018 139.8L368.218 127.8H372.618L376.018 137.8L364.018 139.8ZM401.018 151.8C409.818 151.8 413.418 147 414.618 145.6L410.218 142.8C409.018 144.2 406.018 147 401.018 147C394.818 147 390.818 142.6 390.818 137C390.818 131.4 395.018 127 401.018 127C407.018 127 409.218 130.6 410.018 133.2L415.218 132.6C414.218 128.4 410.618 122.2 401.018 122.2C391.018 122.2 385.618 129.4 385.618 137C385.618 144.6 391.018 151.8 401.018 151.8ZM426.429 151H431.629V127.8H441.629V123H416.429V127.8H426.429V151ZM444.826 151H448.826L465.226 132V151H470.426V123H466.426L450.026 142V123H444.826V151ZM494.816 151H500.016V123H494.816V137.2L484.216 136.2C482.016 136 479.616 135 479.616 132V123H474.416V132.2C474.416 136.8 478.016 140.44 484.016 141L494.816 142V151ZM504.826 151H528.826V146.2H510.026V137.2H524.226V132.4H510.026V127.8H528.826V123H504.826V151ZM545.823 151.8C554.623 151.8 558.223 147 559.423 145.6L555.023 142.8C553.823 144.2 550.823 147 545.823 147C539.623 147 535.623 142.6 535.623 137C535.623 131.4 539.823 127 545.823 127C551.823 127 554.023 130.6 554.823 133.2L560.023 132.6C559.023 128.4 555.423 122.2 545.823 122.2C535.823 122.2 530.423 129.4 530.423 137C530.423 144.6 535.823 151.8 545.823 151.8ZM562.834 151.04H568.034V142.8L573.034 138L582.434 151H588.434L576.634 134.6L588.834 123H581.834L568.034 136V123.04H562.834V151.04ZM591.623 151H595.623L612.023 132V151H617.223V123H613.223L596.823 142V123H591.623V151ZM628.413 120H642.413V116H628.413V120ZM622.013 151H626.013L642.413 132V151H647.613V123H643.613L627.213 142V123H622.013V151ZM672.404 151.04H677.604V142.8L682.604 138L692.004 151H698.004L686.204 134.6L698.404 123H691.404L677.604 136V123.04H672.404V151.04ZM700.393 151H711.993L705.993 127.8H721.593V151H726.793V123H699.593L705.593 146.2H700.393V151ZM744.584 151L761.184 123H755.184L747.184 136.6L736.184 123H729.584L744.384 141.4L738.784 151H744.584ZM763.966 151H780.366C786.766 151 789.966 146.4 789.966 141.8C789.966 137.2 786.366 133.72 780.366 133.2L769.166 132.2V127.8H787.966V123H763.966V151ZM769.166 146.2V136.8L780.166 137.8C782.366 138 784.766 139 784.766 142C784.766 145 782.566 146.2 780.166 146.2H769.166ZM33.2234 240.6C50.8234 240.6 58.0234 231 60.4234 228.2L51.6234 222.6C49.2234 225.4 43.2234 231 33.2234 231C20.8234 231 12.8234 222.2 12.8234 211C12.8234 199.8 21.2234 191 33.2234 191C45.2234 191 49.6234 198.2 51.2234 203.4L61.6234 202.2C59.6234 193.8 52.4234 181.4 33.2234 181.4C13.2234 181.4 2.42344 195.8 2.42344 211C2.42344 226.2 13.2234 240.6 33.2234 240.6ZM67.2453 239H100.045C112.845 239 119.245 231.4 119.245 221.4C119.245 211.4 111.245 207.8 111.245 207.8C111.245 207.72 115.245 204.2 115.245 197.4C115.245 187 107.645 183 98.0453 183H67.2453V239ZM77.6453 202.6V192.2H96.8453C102.445 192.2 104.845 194.6 104.845 198.2C104.845 202.2 101.645 205 101.645 205L77.6453 202.6ZM77.6453 229.4V211.8L99.6453 213.8C105.245 214.28 108.845 215.8 108.845 221.8C108.845 227.8 104.045 229.4 99.6453 229.4H77.6453ZM126.464 239H174.464V229.4H136.864V211.4H165.264V201.8H136.864V192.6H174.464V183H126.464V239ZM199.28 239H209.68V192.6H229.68V183H179.28V192.6H199.28V239ZM234.473 239H257.673L245.673 192.6H276.873V239H287.273V183H232.873L244.873 229.4H234.473V239ZM292.855 239H303.655L308.055 226.6L338.455 221.4L344.455 239H355.255L336.055 183H312.055L292.855 239ZM311.255 216.6L319.655 192.6H328.455L335.255 212.6L311.255 216.6ZM360.839 239H371.239V208.6H400.839V239H411.239V183H400.839V199H371.239V183H360.839V239ZM479.559 239H489.959V183H479.559V239ZM420.839 239H453.639C466.439 239 472.839 229.8 472.839 219.4C472.839 209 465.639 201.64 453.639 200.6L431.239 198.6V183H420.839V239ZM431.239 229.4V208.2L453.239 210.2C457.639 210.6 462.439 212.6 462.439 219.8C462.439 227 458.039 229.4 453.239 229.4H431.239ZM535.589 239H548.389L564.789 218.2L581.189 239H593.989L571.989 211L593.989 183H581.189L564.789 203.8L548.389 183H535.589L557.589 211L535.589 239ZM623.223 240.6C643.223 240.6 654.023 226.2 654.023 211C654.023 195.8 643.223 181.4 623.223 181.4C603.223 181.4 592.423 195.8 592.423 211C592.423 226.2 603.223 240.6 623.223 240.6ZM623.223 231C611.223 231 602.823 222.2 602.823 211C602.823 199.8 611.223 191 623.223 191C635.223 191 643.623 199.8 643.623 211C643.623 222.2 635.223 231 623.223 231ZM661.23 239H671.63V221L694.03 219C706.03 217.96 713.23 210.6 713.23 201.4V183H661.23V239ZM671.63 211.4V192.6H702.83V201C702.83 207 698.03 209 693.63 209.4L671.63 211.4ZM721.23 239.08H731.63V222.6L741.63 213L760.43 239H772.43L748.83 206.2L773.23 183H759.23L731.63 209V183.08H721.23V239.08ZM778.808 239H786.808L819.608 201V239H830.008V183H822.008L789.208 221V183H778.808V239ZM839.589 239H849.989V208.6H879.589V239H889.989V183H879.589V199H849.989V183H839.589V239ZM927.989 240.6C947.989 240.6 958.789 226.2 958.789 211C958.789 195.8 947.989 181.4 927.989 181.4C907.989 181.4 897.189 195.8 897.189 211C897.189 226.2 907.989 240.6 927.989 240.6ZM927.989 231C915.989 231 907.589 222.2 907.589 211C907.589 199.8 915.989 191 927.989 191C939.989 191 948.389 199.8 948.389 211C948.389 222.2 939.989 231 927.989 231ZM978.795 177H1006.8V169H978.795V177ZM965.995 239H973.995L1006.8 201V239H1017.2V183H1009.2L976.395 221V183H965.995V239Z" fill="white"/>
<path d="M282 101.575C255.946 78.4938 105.513 138.926 61.0203 103.674C5.40488 59.6088 82.714 38.3601 88.3308 36.5271C95.3454 34.238 143.191 25.5 143.191 2" stroke="#FF640D" stroke-width="3" stroke-dasharray="15 15"/>
<path d="M397.55 97C404.506 71.4444 350.385 33.1023 430.084 48.8357C509.784 64.569 569.649 21.2222 545.641 2" stroke="#FF640D" stroke-width="3" stroke-linecap="round" stroke-dasharray="15 15"/>
<path d="M706 100C738.257 80.9625 813.345 49.8318 855.644 77.6093C897.944 105.387 873.269 38.777 855.644 2" stroke="#FF640D" stroke-width="3" stroke-linecap="round" stroke-dasharray="15 15"/>
</svg>
