<svg width="361" height="112" viewBox="0 0 361 112" fill="none" xmlns="http://www.w3.org/2000/svg">
<path d="M88.1391 80.1322H89.9447V72.0903H95.6391V70.4264H88.1391V80.1322ZM96.752 80.1322H98.1409L103.835 73.5461V80.1322H105.641V70.4264H104.252L98.5575 77.0125V70.4264H96.752V80.1322ZM106.888 80.1322H108.693L109.527 73.1995L112.027 78.4683H114.249L116.749 73.1995L117.582 80.1322H119.388L118.207 70.4264H116.263L113.138 77.0125L110.013 70.4264H108.068L106.888 80.1322ZM120.637 80.1322H122.443V74.8633H127.581V80.1322H129.387V70.4264H127.581V73.1995H122.443V70.4264H120.637V80.1322ZM130.359 80.1322H132.234L132.998 77.983L138.276 77.0818L139.318 80.1322H141.193L137.859 70.4264H133.693L130.359 80.1322ZM133.554 76.2499L135.012 72.0903H136.54L137.72 75.5566L133.554 76.2499ZM146.401 80.4095C149.457 80.4095 150.707 78.7456 151.123 78.2603L149.595 77.2898C149.179 77.7751 148.137 78.7456 146.401 78.7456C144.248 78.7456 142.859 77.2204 142.859 75.2793C142.859 73.3382 144.318 71.813 146.401 71.813C148.484 71.813 149.248 73.0608 149.526 73.9621L151.331 73.7541C150.984 72.2983 149.734 70.1491 146.401 70.1491C142.929 70.1491 141.054 72.6449 141.054 75.2793C141.054 77.9137 142.929 80.4095 146.401 80.4095ZM155.224 80.1322H157.03V72.0903H160.502V70.4264H151.752V72.0903H155.224V80.1322ZM161.612 80.1322H163.001L168.695 73.5461V80.1322H170.501V70.4264H169.112L163.418 77.0125V70.4264H161.612V80.1322ZM178.97 80.1322H180.775V70.4264H178.97V75.3486L175.289 75.002C174.525 74.9327 173.692 74.586 173.692 73.5461V70.4264H171.886V73.6155C171.886 75.21 173.136 76.4717 175.22 76.6658L178.97 77.0125V80.1322ZM182.445 80.1322H190.779V78.4683H184.251V75.3486H189.182V73.6848H184.251V72.0903H190.779V70.4264H182.445V80.1322ZM196.68 80.4095C199.736 80.4095 200.986 78.7456 201.403 78.2603L199.875 77.2898C199.458 77.7751 198.417 78.7456 196.68 78.7456C194.528 78.7456 193.139 77.2204 193.139 75.2793C193.139 73.3382 194.597 71.813 196.68 71.813C198.764 71.813 199.528 73.0608 199.805 73.9621L201.611 73.7541C201.264 72.2983 200.014 70.1491 196.68 70.1491C193.208 70.1491 191.333 72.6449 191.333 75.2793C191.333 77.9137 193.208 80.4095 196.68 80.4095ZM202.587 80.146H204.393V77.2898L206.129 75.6259L209.393 80.1322H211.476L207.379 74.4474L211.615 70.4264H209.184L204.393 74.9327V70.4403H202.587V80.146ZM212.583 80.1322H213.972L219.667 73.5461V80.1322H221.472V70.4264H220.083L214.389 77.0125V70.4264H212.583V80.1322ZM225.358 69.3865H230.219V68H225.358V69.3865ZM223.135 80.1322H224.524L230.219 73.5461V80.1322H232.024V70.4264H230.635L224.941 77.0125V70.4264H223.135V80.1322ZM240.632 80.146H242.438V77.2898L244.174 75.6259L247.438 80.1322H249.521L245.424 74.4474L249.66 70.4264H247.229L242.438 74.9327V70.4403H240.632V80.146ZM250.351 80.1322H254.378L252.295 72.0903H257.712V80.1322H259.517V70.4264H250.073L252.156 78.4683H250.351V80.1322ZM265.695 80.1322L271.459 70.4264H269.375L266.598 75.1406L262.778 70.4264H260.486L265.625 76.8045L263.681 80.1322H265.695ZM272.425 80.1322H278.119C280.341 80.1322 281.452 78.5377 281.452 76.9431C281.452 75.3486 280.202 74.1423 278.119 73.9621L274.23 73.6155V72.0903H280.758V70.4264H272.425V80.1322ZM274.23 78.4683V75.21L278.05 75.5566C278.813 75.6259 279.647 75.9726 279.647 77.0125C279.647 78.0524 278.883 78.4683 278.05 78.4683H274.23ZM18.6944 111.191C24.8055 111.191 27.3055 107.863 28.1389 106.892L25.0833 104.951C24.25 105.922 22.1667 107.863 18.6944 107.863C14.3889 107.863 11.6111 104.812 11.6111 100.93C11.6111 97.0479 14.5278 93.9975 18.6944 93.9975C22.8611 93.9975 24.3889 96.4933 24.9444 98.2957L28.5556 97.8798C27.8611 94.9681 25.3611 90.6698 18.6944 90.6698C11.75 90.6698 8 95.6613 8 100.93C8 106.199 11.75 111.191 18.6944 111.191ZM30.5076 110.636H41.8964C46.3408 110.636 48.5631 108.001 48.5631 104.535C48.5631 101.069 45.7853 99.8209 45.7853 99.8209C45.7853 99.7932 47.1742 98.5731 47.1742 96.2159C47.1742 92.611 44.5353 91.2244 41.202 91.2244H30.5076V110.636ZM34.1187 98.0184V94.4135H40.7854C42.7297 94.4135 43.5631 95.2454 43.5631 96.4933C43.5631 97.8798 42.4519 98.8504 42.4519 98.8504L34.1187 98.0184ZM34.1187 107.308V101.207L41.7576 101.901C43.7019 102.067 44.9519 102.594 44.9519 104.674C44.9519 106.754 43.2853 107.308 41.7576 107.308H34.1187ZM51.0697 110.636H67.7363V107.308H54.6808V101.069H64.5419V97.7411H54.6808V94.5521H67.7363V91.2244H51.0697V110.636ZM76.353 110.636H79.9641V94.5521H86.9086V91.2244H69.4086V94.5521H76.353V110.636ZM88.5728 110.636H96.6284L92.4617 94.5521H103.295V110.636H106.906V91.2244H88.0172L92.1839 107.308H88.5728V110.636ZM108.844 110.636H112.594L114.122 106.338L124.678 104.535L126.761 110.636H130.511L123.844 91.2244H115.511L108.844 110.636ZM115.233 102.871L118.15 94.5521H121.205L123.567 101.485L115.233 102.871ZM132.45 110.636H136.061V100.098H146.339V110.636H149.95V91.2244H146.339V96.7706H136.061V91.2244H132.45V110.636ZM173.672 110.636H177.283V91.2244H173.672V110.636ZM153.283 110.636H164.672C169.117 110.636 171.339 107.447 171.339 103.842C171.339 100.237 168.839 97.6857 164.672 97.3252L156.894 96.6319V91.2244H153.283V110.636ZM156.894 107.308V99.9596L164.533 100.653C166.061 100.792 167.728 101.485 167.728 103.981C167.728 106.476 166.2 107.308 164.533 107.308H156.894ZM193.127 110.636H197.571L203.266 103.426L208.96 110.636H213.405L205.766 100.93L213.405 91.2244H208.96L203.266 98.4344L197.571 91.2244H193.127L200.766 100.93L193.127 110.636ZM223.555 111.191C230.5 111.191 234.25 106.199 234.25 100.93C234.25 95.6613 230.5 90.6698 223.555 90.6698C216.611 90.6698 212.861 95.6613 212.861 100.93C212.861 106.199 216.611 111.191 223.555 111.191ZM223.555 107.863C219.389 107.863 216.472 104.812 216.472 100.93C216.472 97.0479 219.389 93.9975 223.555 93.9975C227.722 93.9975 230.639 97.0479 230.639 100.93C230.639 104.812 227.722 107.863 223.555 107.863ZM236.752 110.636H240.363V104.396L248.141 103.703C252.308 103.343 254.808 100.792 254.808 97.6025V91.2244H236.752V110.636ZM240.363 101.069V94.5521H251.197V97.4638C251.197 99.5436 249.53 100.237 248.002 100.376L240.363 101.069ZM257.586 110.664H261.197V104.951L264.669 101.623L271.197 110.636H275.363L267.169 99.2663L275.641 91.2244H270.78L261.197 100.237V91.2522H257.586V110.664ZM277.578 110.636H280.356L291.745 97.4638V110.636H295.356V91.2244H292.578L281.189 104.396V91.2244H277.578V110.636ZM298.683 110.636H302.294V100.098H312.571V110.636H316.183V91.2244H312.571V96.7706H302.294V91.2244H298.683V110.636ZM329.377 111.191C336.321 111.191 340.072 106.199 340.072 100.93C340.072 95.6613 336.321 90.6698 329.377 90.6698C322.433 90.6698 318.683 95.6613 318.683 100.93C318.683 106.199 322.433 111.191 329.377 111.191ZM329.377 107.863C325.21 107.863 322.294 104.812 322.294 100.93C322.294 97.0479 325.21 93.9975 329.377 93.9975C333.544 93.9975 336.46 97.0479 336.46 100.93C336.46 104.812 333.544 107.863 329.377 107.863ZM347.018 89.1446H356.742V86.3716H347.018V89.1446ZM342.574 110.636H345.351L356.742 97.4638V110.636H360.353V91.2244H357.575L346.185 104.396V91.2244H342.574V110.636Z" fill="black"/>
<path d="M99.0847 60.0173C88.589 46.5688 27.9883 81.7793 10.065 61.2398C-12.3392 35.5655 18.8041 23.1851 21.0668 22.1171C23.8925 20.7834 43.1666 15.6922 43.1666 2" stroke="#FF640D" stroke-width="3" stroke-dasharray="10 10"/>
<path d="M145.06 57.7958C147.883 42.7864 125.921 20.2672 158.262 29.5077C190.604 38.7483 214.896 13.2897 205.154 2" stroke="#FF640D" stroke-width="3" stroke-linecap="round" stroke-dasharray="10 10"/>
<path d="M254 59.9117C266.9 48.856 296.93 30.7774 313.846 46.9087C330.763 63.04 320.895 24.3576 313.846 3" stroke="#FF640D" stroke-width="3" stroke-linecap="round" stroke-dasharray="10 10"/>
</svg>
