<svg width="141" height="60" viewBox="0 0 141 60" fill="none" xmlns="http://www.w3.org/2000/svg">
<rect x="8" y="5" width="39" height="28" fill="#D9D9D9"/>
<ellipse cx="47" cy="34" rx="15" ry="12" fill="white"/>
<path d="M16 26L29.8564 51.5H2.14359L16 26Z" fill="#D07D7D"/>
<path d="M68.5436 19V17.605C68.8616 17.635 69.1256 17.62 69.3356 17.56C69.5456 17.5 69.7166 17.371 69.8486 17.173C69.9866 16.975 70.1066 16.687 70.2086 16.309C70.3106 15.925 70.4096 15.427 70.5056 14.815C70.6316 14.095 70.7366 13.369 70.8206 12.637C70.9046 11.899 70.9766 11.161 71.0366 10.423C71.1026 9.679 71.1566 8.941 71.1986 8.209C71.2406 7.471 71.2766 6.748 71.3066 6.04H79.6496V19H78.0476V7.561H72.8276C72.7916 8.107 72.7526 8.692 72.7106 9.316C72.6746 9.934 72.6266 10.579 72.5666 11.251C72.5066 11.923 72.4346 12.616 72.3506 13.33C72.2666 14.044 72.1616 14.77 72.0356 15.508C71.9336 16.102 71.8106 16.645 71.6666 17.137C71.5286 17.629 71.3336 18.04 71.0816 18.37C70.8356 18.7 70.5086 18.925 70.1006 19.045C69.6986 19.165 69.1796 19.15 68.5436 19ZM86.3102 19.27C85.3442 19.27 84.5102 19.051 83.8082 18.613C83.1122 18.175 82.5752 17.569 82.1972 16.795C81.8192 16.021 81.6302 15.133 81.6302 14.131C81.6302 13.111 81.8222 12.217 82.2062 11.449C82.5902 10.681 83.1332 10.084 83.8352 9.658C84.5372 9.226 85.3622 9.01 86.3102 9.01C87.2822 9.01 88.1192 9.229 88.8212 9.667C89.5232 10.099 90.0602 10.702 90.4322 11.476C90.8102 12.244 90.9992 13.129 90.9992 14.131C90.9992 15.145 90.8102 16.039 90.4322 16.813C90.0542 17.581 89.5142 18.184 88.8122 18.622C88.1102 19.054 87.2762 19.27 86.3102 19.27ZM86.3102 17.749C87.3182 17.749 88.0682 17.413 88.5602 16.741C89.0522 16.069 89.2982 15.199 89.2982 14.131C89.2982 13.033 89.0492 12.16 88.5512 11.512C88.0532 10.858 87.3062 10.531 86.3102 10.531C85.6322 10.531 85.0742 10.684 84.6362 10.99C84.1982 11.296 83.8712 11.719 83.6552 12.259C83.4392 12.799 83.3312 13.423 83.3312 14.131C83.3312 15.223 83.5832 16.099 84.0872 16.759C84.5912 17.419 85.3322 17.749 86.3102 17.749ZM92.9807 19V9.28H99.7307V10.801H94.5827V19H92.9807ZM105.4 19.27C104.434 19.27 103.6 19.051 102.898 18.613C102.202 18.175 101.665 17.569 101.287 16.795C100.909 16.021 100.72 15.133 100.72 14.131C100.72 13.111 100.912 12.217 101.296 11.449C101.68 10.681 102.223 10.084 102.925 9.658C103.627 9.226 104.452 9.01 105.4 9.01C106.372 9.01 107.209 9.229 107.911 9.667C108.613 10.099 109.15 10.702 109.522 11.476C109.9 12.244 110.089 13.129 110.089 14.131C110.089 15.145 109.9 16.039 109.522 16.813C109.144 17.581 108.604 18.184 107.902 18.622C107.2 19.054 106.366 19.27 105.4 19.27ZM105.4 17.749C106.408 17.749 107.158 17.413 107.65 16.741C108.142 16.069 108.388 15.199 108.388 14.131C108.388 13.033 108.139 12.16 107.641 11.512C107.143 10.858 106.396 10.531 105.4 10.531C104.722 10.531 104.164 10.684 103.726 10.99C103.288 11.296 102.961 11.719 102.745 12.259C102.529 12.799 102.421 13.423 102.421 14.131C102.421 15.223 102.673 16.099 103.177 16.759C103.681 17.419 104.422 17.749 105.4 17.749ZM114.434 19V10.738H111.05V9.28H119.42V10.738H116.036V19H114.434ZM129.079 9.28V19H127.531V11.836L122.437 19H121.114V9.28H122.662V16.345L127.765 9.28H129.079ZM131.591 19V9.28H139.556V19H137.954V10.801H133.193V19H131.591ZM80.1399 44V31.04H81.7419V37.124L87.4119 31.04H89.4279L83.5419 37.331L89.8869 44H87.8169L81.7419 37.664V44H80.1399ZM89.5231 44V42.623C89.8831 42.689 90.1561 42.677 90.3421 42.587C90.5341 42.491 90.6751 42.326 90.7651 42.092C90.8611 41.852 90.9391 41.552 90.9991 41.192C91.1011 40.622 91.1881 39.986 91.2601 39.284C91.3381 38.582 91.4071 37.814 91.4671 36.98C91.5331 36.14 91.5931 35.24 91.6471 34.28H98.4421V44H96.8401V35.801H93.1051C93.0691 36.353 93.0241 36.92 92.9701 37.502C92.9221 38.084 92.8711 38.651 92.8171 39.203C92.7631 39.749 92.7031 40.259 92.6371 40.733C92.5771 41.201 92.5111 41.606 92.4391 41.948C92.3251 42.536 92.1661 43.007 91.9621 43.361C91.7581 43.709 91.4641 43.934 91.0801 44.036C90.6961 44.144 90.1771 44.132 89.5231 44ZM102.32 48.32L104.201 43.208L104.228 44.72L99.98 34.28H101.663L104.993 42.677H104.417L107.54 34.28H109.169L103.877 48.32H102.32ZM114.607 44.279C113.689 44.273 112.906 44.075 112.258 43.685C111.61 43.289 111.106 42.71 110.746 41.948C110.386 41.186 110.185 40.253 110.143 39.149C110.119 38.639 110.125 38.078 110.161 37.466C110.203 36.854 110.269 36.266 110.359 35.702C110.455 35.138 110.575 34.673 110.719 34.307C110.881 33.869 111.109 33.464 111.403 33.092C111.703 32.714 112.039 32.402 112.411 32.156C112.789 31.898 113.212 31.697 113.68 31.553C114.148 31.409 114.637 31.298 115.147 31.22C115.663 31.136 116.179 31.064 116.695 31.004C117.211 30.938 117.703 30.86 118.171 30.77L118.333 32.21C118.003 32.282 117.613 32.345 117.163 32.399C116.713 32.447 116.245 32.504 115.759 32.57C115.279 32.636 114.817 32.729 114.373 32.849C113.935 32.963 113.557 33.122 113.239 33.326C112.771 33.608 112.411 34.031 112.159 34.595C111.913 35.153 111.763 35.78 111.709 36.476C112.081 35.9 112.564 35.477 113.158 35.207C113.752 34.937 114.385 34.802 115.057 34.802C115.927 34.802 116.677 35.006 117.307 35.414C117.937 35.816 118.42 36.371 118.756 37.079C119.098 37.787 119.269 38.594 119.269 39.5C119.269 40.46 119.077 41.3 118.693 42.02C118.309 42.74 117.766 43.298 117.064 43.694C116.368 44.09 115.549 44.285 114.607 44.279ZM114.706 42.758C115.648 42.758 116.362 42.467 116.848 41.885C117.334 41.297 117.577 40.517 117.577 39.545C117.577 38.549 117.325 37.766 116.821 37.196C116.317 36.62 115.609 36.332 114.697 36.332C113.773 36.332 113.065 36.62 112.573 37.196C112.087 37.766 111.844 38.549 111.844 39.545C111.844 40.547 112.09 41.333 112.582 41.903C113.074 42.473 113.782 42.758 114.706 42.758ZM124.018 44.27C123.292 44.27 122.683 44.138 122.191 43.874C121.705 43.604 121.336 43.25 121.084 42.812C120.838 42.374 120.715 41.894 120.715 41.372C120.715 40.862 120.811 40.421 121.003 40.049C121.201 39.671 121.477 39.359 121.831 39.113C122.185 38.861 122.608 38.663 123.1 38.519C123.562 38.393 124.078 38.285 124.648 38.195C125.224 38.099 125.806 38.012 126.394 37.934C126.982 37.856 127.531 37.781 128.041 37.709L127.465 38.042C127.483 37.178 127.309 36.539 126.943 36.125C126.583 35.711 125.959 35.504 125.071 35.504C124.483 35.504 123.967 35.639 123.523 35.909C123.085 36.173 122.776 36.605 122.596 37.205L121.075 36.746C121.309 35.894 121.762 35.225 122.434 34.739C123.106 34.253 123.991 34.01 125.089 34.01C125.971 34.01 126.727 34.169 127.357 34.487C127.993 34.799 128.449 35.273 128.725 35.909C128.863 36.209 128.95 36.536 128.986 36.89C129.022 37.238 129.04 37.604 129.04 37.988V44H127.618V41.669L127.951 41.885C127.585 42.671 127.072 43.265 126.412 43.667C125.758 44.069 124.96 44.27 124.018 44.27ZM124.261 42.929C124.837 42.929 125.335 42.827 125.755 42.623C126.181 42.413 126.523 42.14 126.781 41.804C127.039 41.462 127.207 41.09 127.285 40.688C127.375 40.388 127.423 40.055 127.429 39.689C127.441 39.317 127.447 39.032 127.447 38.834L128.005 39.077C127.483 39.149 126.97 39.218 126.466 39.284C125.962 39.35 125.485 39.422 125.035 39.5C124.585 39.572 124.18 39.659 123.82 39.761C123.556 39.845 123.307 39.953 123.073 40.085C122.845 40.217 122.659 40.388 122.515 40.598C122.377 40.802 122.308 41.057 122.308 41.363C122.308 41.627 122.374 41.879 122.506 42.119C122.644 42.359 122.854 42.554 123.136 42.704C123.424 42.854 123.799 42.929 124.261 42.929Z" fill="white"/>
</svg>
